<svg xmlns="http://www.w3.org/2000/svg" width="380" height="215" viewBox="0 0 380 215" font-family="-apple-system, BlinkMacSystemFont, Segoe UI, Helvetica, Arial, sans-serif"><rect x="1.5" y="1.5" rx="8" ry="8" width="377" height="212" fill="#000000" stroke="#00FF00" stroke-width="2"/><text x="190.0" y="38" fill="#00FF00" font-size="16" font-weight="700" text-anchor="middle">most committed languages</text><path d="M 300.00 51.00 A 72 72 0 0 1 321.31 191.77 L 316.57 176.49 A 56 56 0 0 0 300.00 67.00 Z" fill="#3572A5"/><path d="M 321.31 191.77 A 72 72 0 0 1 261.41 183.79 L 269.99 170.28 A 56 56 0 0 0 316.57 176.49 Z" fill="#f34b7d"/><path d="M 261.41 183.79 A 72 72 0 0 1 230.43 141.54 L 245.89 137.42 A 56 56 0 0 0 269.99 170.28 Z" fill="#ff9500"/><path d="M 230.43 141.54 A 72 72 0 0 1 228.01 124.00 L 244.01 123.78 A 56 56 0 0 0 245.89 137.42 Z" fill="#8ee34d"/><path d="M 228.01 124.00 A 72 72 0 0 1 229.29 109.43 L 245.00 112.44 A 56 56 0 0 0 244.01 123.78 Z" fill="#34c759"/><path d="M 229.29 109.43 A 72 72 0 0 1 231.01 102.39 L 246.34 106.97 A 56 56 0 0 0 245.00 112.44 Z" fill="#00c7be"/><path d="M 231.01 102.39 A 72 72 0 0 1 233.14 96.29 L 248.00 102.23 A 56 56 0 0 0 246.34 106.97 Z" fill="#5856d6"/><path d="M 233.14 96.29 A 72 72 0 0 1 300.00 51.00 L 300.00 67.00 A 56 56 0 0 0 248.00 102.23 Z" fill="#9942d7"/><path d="M 300.00 73.00 A 50 50 0 1 1 250.69 131.28 L 270.41 127.97 A 30 30 0 1 0 300.00 93.00 Z" fill="#3572A5"/><path d="M 250.69 131.28 A 50 50 0 0 1 251.98 109.07 L 271.19 114.64 A 30 30 0 0 0 270.41 127.97 Z" fill="#f34b7d"/><path d="M 251.98 109.07 A 50 50 0 0 1 252.43 107.60 L 271.46 113.76 A 30 30 0 0 0 271.19 114.64 Z" fill="#ff9500"/><path d="M 252.43 107.60 A 50 50 0 0 1 253.17 105.49 L 271.90 112.49 A 30 30 0 0 0 271.46 113.76 Z" fill="#8ee34d"/><path d="M 253.17 105.49 A 50 50 0 0 1 253.25 105.28 L 271.95 112.37 A 30 30 0 0 0 271.90 112.49 Z" fill="#34c759"/><path d="M 253.25 105.28 A 50 50 0 0 1 296.48 73.12 L 297.89 93.07 A 30 30 0 0 0 271.95 112.37 Z" fill="#00c7be"/><path d="M 296.48 73.12 A 50 50 0 0 1 296.57 73.12 L 297.94 93.07 A 30 30 0 0 0 297.89 93.07 Z" fill="#5856d6"/><path d="M 296.57 73.12 A 50 50 0 0 1 300.00 73.00 L 300.00 93.00 A 30 30 0 0 0 297.94 93.07 Z" fill="#9942d7"/><text x="300" y="63" fill="#888888" font-size="8" text-anchor="middle" font-weight="700">commits</text><text x="300" y="127" fill="#888888" font-size="8" text-anchor="middle" font-weight="700">lines</text><circle cx="30" cy="61" r="6" fill="#3572A5"/><text x="45" y="65" fill="#eaeaea" font-size="12" font-weight="600">Python</text><text x="225" y="65" fill="#888888" font-size="11" text-anchor="end">45.22%</text><circle cx="30" cy="79" r="6" fill="#f34b7d"/><text x="45" y="83" fill="#eaeaea" font-size="12" font-weight="600">C++</text><text x="225" y="83" fill="#888888" font-size="11" text-anchor="end">13.78%</text><circle cx="30" cy="97" r="6" fill="#ff9500"/><text x="45" y="101" fill="#eaeaea" font-size="12" font-weight="600">Markdown</text><text x="225" y="101" fill="#888888" font-size="11" text-anchor="end">11.85%</text><circle cx="30" cy="115" r="6" fill="#8ee34d"/><text x="45" y="119" fill="#eaeaea" font-size="12" font-weight="600">Rust</text><text x="225" y="119" fill="#888888" font-size="11" text-anchor="end">3.92%</text><circle cx="30" cy="133" r="6" fill="#34c759"/><text x="45" y="137" fill="#eaeaea" font-size="12" font-weight="600">SVG</text><text x="225" y="137" fill="#888888" font-size="11" text-anchor="end">3.24%</text><circle cx="30" cy="151" r="6" fill="#00c7be"/><text x="45" y="155" fill="#eaeaea" font-size="12" font-weight="600">C</text><text x="225" y="155" fill="#888888" font-size="11" text-anchor="end">1.60%</text><circle cx="30" cy="169" r="6" fill="#5856d6"/><text x="45" y="173" fill="#eaeaea" font-size="12" font-weight="600">TOML</text><text x="225" y="173" fill="#888888" font-size="11" text-anchor="end">1.43%</text><circle cx="30" cy="187" r="6" fill="#9942d7"/><text x="45" y="191" fill="#eaeaea" font-size="12" font-weight="600">Other</text><text x="225" y="191" fill="#888888" font-size="11" text-anchor="end">18.95%</text></svg>